<svg width="70" height="92" viewBox="0 0 70 92" fill="none" xmlns="http://www.w3.org/2000/svg">
<path d="M35.0001 3.24887C32.6184 1.45995 29.658 0.399902 26.45 0.399902C18.58 0.399902 12.2 6.77984 12.2 14.6499V23.1999H6.50005C3.35203 23.1999 0.800049 25.7519 0.800049 28.8999V74.4999C0.800049 83.944 8.45598 91.5999 17.9 91.5999H54.95C62.8201 91.5999 69.2 85.22 69.2 77.3499V28.8999C69.2 25.7519 66.6481 23.1999 63.5 23.1999H57.8V14.6499C57.8 6.77984 51.4201 0.399902 43.55 0.399902C40.3421 0.399902 37.3817 1.45995 35.0001 3.24887ZM17.9 14.6499C17.9 9.92787 21.728 6.0999 26.45 6.0999C31.1721 6.0999 35 9.92787 35 14.6499V23.1999H17.9V14.6499ZM38.8016 7.53864C40.1599 6.62986 41.7931 6.0999 43.55 6.0999C48.2721 6.0999 52.1 9.92787 52.1 14.6499V23.1999H40.7V14.6499C40.7 12.06 40.0091 9.63152 38.8016 7.53864ZM17.9 85.8999C11.604 85.8999 6.50005 80.7959 6.50005 74.4999V28.8999H40.7V77.3499C40.7 80.5579 41.7601 83.5183 43.549 85.8999H17.9ZM63.5 77.3499C63.5 82.0719 59.6721 85.8999 54.95 85.8999C50.228 85.8999 46.4 82.0719 46.4 77.3499V28.8999H63.5V77.3499Z" fill="#242424"/>
</svg>
